<svg id="outline_expand" enable-background="new 0 0 512 512" height="512" viewBox="0 0 512 512" width="512" xmlns="http://www.w3.org/2000/svg"><g><path d="m488 416h-8v-24c0-4.418-3.582-8-8-8h-28c-7.827 0-14.914 3.228-20 8.423-5.086-5.195-12.173-8.423-20-8.423h-28c-4.418 0-8 3.582-8 8v24h-24v-16h-16v16h-24v-16h-16v16h-24v-16h-16v16h-33.754l-2.698-10.791c-3.121-12.487-14.291-21.209-27.163-21.209h-.385v-4c0-15.439-12.561-28-28-28h-20v1.072c-4.567-3.881-10.04-6.69-16-8.083v-49.941c0-8.02 4.364-15.404 11.389-19.272l68.611-37.776v82h-8v16h32v-16h-8v-71.677l1.701 2.252c9.153 12.117 23.112 19.066 38.299 19.066s29.146-6.949 38.299-19.066l1.701-2.252v71.677h-8v16h32v-16h-8v-81.478l59.508 35.361-11.061 61.397c-1.367 7.588.378 15.201 4.914 21.436 4.535 6.235 11.24 10.239 18.88 11.274l22.021 2.986c1.286.175 2.568.261 3.842.261 6.29 0 12.343-2.106 17.359-6.1 6.032-4.802 9.741-11.675 10.445-19.353.013-.141.021-.283.027-.425l2.484-65.055-15.988-.61-2.476 64.815c-.343 3.216-1.922 6.09-4.458 8.109-2.585 2.058-5.813 2.948-9.086 2.502l-22.021-2.986c-3.274-.444-6.148-2.16-8.092-4.833-1.944-2.672-2.692-5.935-2.106-9.186l27.151-150.714c1.569.509 3.204.886 4.895 1.115l19.575 2.655-2.77 72.522 15.988.61 2.807-73.493c10.18-3.075 18.172-11.846 19.692-23.053l2.149-15.854c1.005-7.411-.937-14.77-5.467-20.721-4.529-5.951-11.105-9.782-18.517-10.787l-3.963-.537 5.375-39.637c1.778-13.113-7.444-25.229-20.558-27.007-13.123-1.779-25.229 7.443-27.008 20.557l-6.45 47.565-4.838 35.673c-.978 7.213.897 14.167 4.754 19.72l-14.473 80.341-64.463-38.305-17.653-23.537c11.671-6.494 19.582-18.954 19.582-33.228v-2h14c9.925 0 18-8.075 18-18v-38c0-48.523-39.477-88-88-88-12.233 0-24.077 2.465-35.203 7.326l6.406 14.662c9.093-3.973 18.782-5.988 28.797-5.988 37.021 0 67.604 28.085 71.566 64.068-.516-.045-1.039-.068-1.566-.068h-14v-10c0-20.953-17.047-38-38-38h-36c-20.953 0-38 17.047-38 38v10h-14c-.53 0-1.055.023-1.574.068 2.135-19.736 12.21-37.53 28.372-49.672l-9.611-12.792c-22.362 16.801-35.187 42.459-35.187 70.396v38c0 9.925 8.075 18 18 18h14v2c0 14.274 7.911 26.734 19.579 33.228l-17.536 23.382-78.37 43.151c-12.135 6.68-19.673 19.436-19.673 33.288v48.951h-7.406c-18.051 0-33.722 12.847-37.262 30.548l-1.891 9.452h-1.826c-12.872 0-24.042 8.722-27.163 21.209l-2.698 10.791h-1.754c-4.418 0-8 3.582-8 8v64c0 4.418 3.582 8 8 8h408v-16h-400v-48h152v4c0 15.439 12.561 28 28 28h12v-16h-12c-6.617 0-12-5.383-12-12v-4h112v4c0 6.617-5.383 12-12 12h-60v16h60c15.439 0 28-12.561 28-28v-4h152v48h-32v16h40c4.418 0 8-3.582 8-8v-64c0-4.418-3.582-8-8-8zm-40.517-275.125c1.94 2.551 2.772 5.705 2.342 8.881l-2.149 15.854c-.889 6.558-6.949 11.172-13.505 10.279h.001l-23.782-3.225c-6.557-.89-11.168-6.947-10.278-13.504l3.763-27.746 35.673 4.837c3.176.432 5.994 2.073 7.935 4.624zm-36.084-64.953c.592-4.371 4.63-7.442 9.002-6.853 4.371.593 7.445 4.631 6.853 9.002l-5.375 39.637-15.854-2.15zm-85.399 36.078c1.103 0 2 .897 2 2v28c0 1.103-.897 2-2 2h-14v-32zm-88-48h36c12.131 0 22 9.869 22 22v5.056l-22.42 11.21-11.923-11.923c-1.562-1.562-3.609-2.343-5.657-2.343s-4.095.781-5.657 2.343l-11.094 11.094-23.164-17.374c.983-11.227 10.436-20.063 21.915-20.063zm-52 80c-1.103 0-2-.897-2-2v-28c0-1.103.897-2 2-2h14v32zm30-40 19.2 14.4c3.185 2.388 7.641 2.073 10.457-.743l10.343-10.344 10.343 10.343c1.536 1.536 3.584 2.344 5.659 2.343 1.215 0 2.439-.276 3.576-.845l20.422-10.21v53.056c0 12.131-9.869 22-22 22h-36c-12.131 0-22-9.869-22-22zm20 96h40l17.987 23.982-12.455 16.485c-6.102 8.078-15.408 12.711-25.532 12.711s-19.431-4.633-25.533-12.711l-12.454-16.485zm-68 180v4h-17.441l-1.891-9.452c-.454-2.268-1.107-4.456-1.938-6.548h9.27c6.617 0 12 5.383 12 12zm-92.979-2.314c2.05-10.248 11.123-17.686 21.573-17.686h14.812c10.45 0 19.522 7.438 21.572 17.686l1.263 6.314h-60.482zm-31.047 31.403c1.338-5.352 6.125-9.089 11.642-9.089h128.77c5.517 0 10.304 3.738 11.642 9.09l1.728 6.91h-155.51zm340.026-9.089h20c6.617 0 12 5.383 12 12v4h-32zm48 16v-4c0-6.617 5.383-12 12-12h20v16z"/><path d="m48 448h16v16h-16z"/><path d="m144 448h16v16h-16z"/><path d="m80 448h48v16h-48z"/><path d="m352 448h16v16h-16z"/><path d="m448 448h16v16h-16z"/><path d="m384 448h48v16h-48z"/><path d="m75.309 149.889c-3.809 1.217-7.457 3.217-10.694 5.906-11.877 9.864-14.661 26.172-6.206 36.353 4.157 5.006 10.534 7.852 17.557 7.852.159 0 .318-.001.479-.004 6.646-.122 13.336-2.706 18.838-7.275 11.877-9.864 14.661-26.171 6.206-36.352l-15.334-18.463 30.771-25.556-10.223-12.309-30.771 25.556-10.222-12.308 30.77-25.557-10.222-12.308-36.925 30.667c-3.398 2.823-3.866 7.867-1.043 11.266zm9.751 30.523c-2.678 2.224-5.925 3.531-8.909 3.586-1.335.035-3.887-.21-5.434-2.073-2.723-3.278-.798-9.737 4.12-13.821 2.678-2.224 5.925-3.531 8.909-3.586.059-.001.119-.001.183-.001 1.397 0 3.771.293 5.251 2.075 2.722 3.278.798 9.736-4.12 13.82z"/></g></svg>