<svg height="512" viewBox="0 0 64 64" width="512" xmlns="http://www.w3.org/2000/svg"><g id="outline"><path d="m28 54a3 3 0 0 0 3-3v-46a3 3 0 0 0 -3-3h-22a3 3 0 0 0 -3 3v46a3 3 0 0 0 3 3h3v2h-1a3 3 0 0 0 -3 3v3h24v-3a3 3 0 0 0 -3-3h-1v-2zm1-16.92a11.615 11.615 0 0 1 -2-6.08 11.615 11.615 0 0 1 2-6.08zm-24-12.16a11.615 11.615 0 0 1 2 6.08 11.615 11.615 0 0 1 -2 6.08zm21 33.08a1 1 0 0 1 1 1v1h-20v-1a1 1 0 0 1 1-1zm-15-2v-2h12v2zm-5-4a1 1 0 0 1 -1-1v-10.606c.968-1.072 4-4.794 4-9.394s-3.032-8.322-4-9.394v-16.606a1 1 0 0 1 1-1h22a1 1 0 0 1 1 1v16.606c-.968 1.072-4 4.8-4 9.394s3.032 8.322 4 9.394v10.606a1 1 0 0 1 -1 1z"/><path d="m17 6a10 10 0 1 0 10 10 10.011 10.011 0 0 0 -10-10zm0 18a8 8 0 1 1 8-8 8.009 8.009 0 0 1 -8 8z"/><path d="m17 10a6 6 0 1 0 6 6 6.006 6.006 0 0 0 -6-6zm0 10a4 4 0 1 1 4-4 4 4 0 0 1 -4 4z"/><path d="m17 36a7 7 0 1 0 7 7 7.009 7.009 0 0 0 -7-7zm0 12a5 5 0 1 1 5-5 5.006 5.006 0 0 1 -5 5z"/><path d="m17 40a3 3 0 1 0 3 3 3 3 0 0 0 -3-3zm0 4a1 1 0 1 1 1-1 1 1 0 0 1 -1 1z"/><path d="m16 28h2v2h-2z"/><path d="m16 32h2v2h-2z"/><path d="m12 28h2v2h-2z"/><path d="m12 32h2v2h-2z"/><path d="m20 28h2v2h-2z"/><path d="m20 32h2v2h-2z"/><path d="m58 54a3 3 0 0 0 3-3v-46a3 3 0 0 0 -3-3h-22a3 3 0 0 0 -3 3v46a3 3 0 0 0 3 3h3v2h-1a3 3 0 0 0 -3 3v3h24v-3a3 3 0 0 0 -3-3h-1v-2zm1-16.92a11.615 11.615 0 0 1 -2-6.08 11.615 11.615 0 0 1 2-6.08zm-24-12.16a11.615 11.615 0 0 1 2 6.08 11.615 11.615 0 0 1 -2 6.08zm21 33.08a1 1 0 0 1 1 1v1h-20v-1a1 1 0 0 1 1-1zm-15-2v-2h12v2zm-5-4a1 1 0 0 1 -1-1v-10.606c.968-1.072 4-4.8 4-9.394s-3.032-8.322-4-9.394v-16.606a1 1 0 0 1 1-1h22a1 1 0 0 1 1 1v16.606c-.968 1.072-4 4.8-4 9.394s3.032 8.322 4 9.394v10.606a1 1 0 0 1 -1 1z"/><path d="m47 6a10 10 0 1 0 10 10 10.011 10.011 0 0 0 -10-10zm0 18a8 8 0 1 1 8-8 8.009 8.009 0 0 1 -8 8z"/><path d="m47 10a6 6 0 1 0 6 6 6.006 6.006 0 0 0 -6-6zm0 10a4 4 0 1 1 4-4 4 4 0 0 1 -4 4z"/><path d="m47 36a7 7 0 1 0 7 7 7.009 7.009 0 0 0 -7-7zm0 12a5 5 0 1 1 5-5 5.006 5.006 0 0 1 -5 5z"/><path d="m47 40a3 3 0 1 0 3 3 3 3 0 0 0 -3-3zm0 4a1 1 0 1 1 1-1 1 1 0 0 1 -1 1z"/><path d="m46 28h2v2h-2z"/><path d="m46 32h2v2h-2z"/><path d="m42 28h2v2h-2z"/><path d="m42 32h2v2h-2z"/><path d="m50 28h2v2h-2z"/><path d="m50 32h2v2h-2z"/></g></svg>