<svg id="Layer_4" data-name="Layer 4" xmlns="http://www.w3.org/2000/svg" viewBox="0 0 1181.52 182.41"><defs><style>.cls-1{fill:#fff;}</style></defs><path class="cls-1" d="M105.07,828.08V784.44H52V758.57L98.28,650.48h35.3V760.33h18.19v24.11H133.58v43.64ZM77.45,760.33h27.62V683.15Z" transform="translate(-52.02 -648.29)"/><path class="cls-1" d="M211,830.49q-16.44,0-26.75-7.68a43.52,43.52,0,0,1-15-20.93,88.4,88.4,0,0,1-4.71-29.71V709.9a114.56,114.56,0,0,1,3.95-31.24q3.94-13.92,14-22t28.28-8.11q15.57,0,25.32,5.15a31.81,31.81,0,0,1,14.37,15Q255,678.55,255,693a9.09,9.09,0,0,0,.11,1.42,10.76,10.76,0,0,1,.11,1.43H226.1q0-11.83-2.85-17.76T211,672.19a12.45,12.45,0,0,0-9.21,3.51q-3.51,3.51-5.15,11.51T195,708.58v21.27a21,21,0,0,1,9.31-8,33.79,33.79,0,0,1,14.58-3q14.47-.21,22.81,6.36t11.94,18.2A88.92,88.92,0,0,1,257.23,770a101.74,101.74,0,0,1-4.38,31q-4.4,13.69-14.47,21.59T211,830.49Zm.22-23.46q6.36,0,9.65-3.95t4.6-11a90,90,0,0,0,1.32-16.45q0-9.64-.77-17.21t-4.06-12.05q-3.28-4.5-11-4.5a16.69,16.69,0,0,0-6.91,1.43,19.4,19.4,0,0,0-5.48,3.61,21.42,21.42,0,0,0-3.61,4.39v27.84A63.22,63.22,0,0,0,196.39,793a21.3,21.3,0,0,0,5,10.19A12.77,12.77,0,0,0,211.19,807Z" transform="translate(-52.02 -648.29)"/><path class="cls-1" d="M317.74,830.49q-15.35,0-25.21-5.27a32,32,0,0,1-14.47-15.34q-4.6-10.08-4.6-24.56v-2.41H302.4q0,11.83,3,17.76t12.6,5.92q5.93,0,9.21-3.51T332,791.46a119.1,119.1,0,0,0,1.53-21.27V748.93a20.56,20.56,0,0,1-9.21,7.89,36.84,36.84,0,0,1-14.69,3.07q-14.25.23-22.69-6.69t-12.06-18.74a91.55,91.55,0,0,1-3.62-26.75q0-17.54,4.61-30.81a42.27,42.27,0,0,1,14.91-20.83q10.31-7.56,27-7.56,16.45,0,26.75,7.35a41.6,41.6,0,0,1,15,20.28q4.71,12.93,4.72,29.59v62.93A112.87,112.87,0,0,1,360.17,800q-4.07,14-14,22.25T317.74,830.49Zm.22-93.62q6.14,0,9.76-3.07a28.54,28.54,0,0,0,5.81-6.58V699.6a68.35,68.35,0,0,0-1.31-13.93,21.61,21.61,0,0,0-4.72-10.08q-3.4-3.84-9.76-3.84-6.14,0-9.53,4t-4.72,11a90.93,90.93,0,0,0-1.31,16.44,170.6,170.6,0,0,0,.77,17.11q.76,7.66,4.05,12.16T318,736.87Z" transform="translate(-52.02 -648.29)"/><path class="cls-1" d="M385.93,766.47V746.3h52.84v20.17Z" transform="translate(-52.02 -648.29)"/><path class="cls-1" d="M465.52,828.08l35.3-154.36h-48V650.48h77.83v18.64l-35.73,159Z" transform="translate(-52.02 -648.29)"/><path class="cls-1" d="M591.58,830.49q-16.87,0-27.18-6.8a37,37,0,0,1-14.69-19q-4.4-12.18-4.39-28.18a65.12,65.12,0,0,1,1.43-14.14,47.25,47.25,0,0,1,4.16-11.73,39.5,39.5,0,0,1,6.69-9.32,35,35,0,0,1,9-6.68,44.47,44.47,0,0,1-13.27-15q-5.37-9.54-5.59-24.23,0-14.48,4.72-25.1A33.92,33.92,0,0,1,567,654.1q9.86-5.6,24.55-5.59,14.91,0,24.56,5.7a35,35,0,0,1,14.36,16.23q4.71,10.51,4.49,25-.21,14.91-5.37,24.34a42.7,42.7,0,0,1-13,14.91,35.13,35.13,0,0,1,9,6.68,39.47,39.47,0,0,1,6.68,9.32,47.26,47.26,0,0,1,4.17,11.73,65.77,65.77,0,0,1,1.42,14.14q.23,16-4.27,28.18a37.87,37.87,0,0,1-14.69,19Q608.68,830.49,591.58,830.49Zm0-23c4.83,0,8.44-1.46,10.86-4.39A22.81,22.81,0,0,0,607.15,792a84.62,84.62,0,0,0,1.1-13.7,66.33,66.33,0,0,0-1.1-14.36,24.74,24.74,0,0,0-4.93-11.3q-3.62-4.38-10.64-4.38-6.8,0-10.41,4.38a25.57,25.57,0,0,0-5,11.18,69.86,69.86,0,0,0-1.43,14.48,78.27,78.27,0,0,0,1.21,13.81,22.34,22.34,0,0,0,4.93,11.07Q584.56,807.46,591.58,807.47Zm0-84.85a11.62,11.62,0,0,0,8.66-3.84,21.44,21.44,0,0,0,4.5-10,71.55,71.55,0,0,0,1.31-14.47q0-10.08-3.29-16.44t-11.18-6.36q-7.67,0-11.29,6.36t-3.62,16.22a68,68,0,0,0,1.43,14.58,21.62,21.62,0,0,0,4.71,10.09A12,12,0,0,0,591.58,722.62Z" transform="translate(-52.02 -648.29)"/><path class="cls-1" d="M653.41,828.08V806.59l43.85-67.75q4.82-7.46,9.1-14.25a76.57,76.57,0,0,0,7-14.14,45.72,45.72,0,0,0,2.75-16.12q0-9.86-3.51-15.12t-11-5.27q-7,0-11,3.95a20.56,20.56,0,0,0-5.37,10.3,64.36,64.36,0,0,0-1.42,14v7.45H654.07v-7.89q0-15.79,4.71-27.74a39,39,0,0,1,15-18.74q10.31-6.79,27-6.8,22.8,0,34.2,12.28t11.4,34.2a60.35,60.35,0,0,1-3.07,19.84,84.61,84.61,0,0,1-8.11,17q-5,8.1-11,16.66l-36.4,55.25h53.94v24.34Z" transform="translate(-52.02 -648.29)"/><path class="cls-1" d="M762.81,766.47V746.3h52.84v20.17Z" transform="translate(-52.02 -648.29)"/><path class="cls-1" d="M881,830.49q-16.89,0-27.19-6.8a37.07,37.07,0,0,1-14.69-19q-4.38-12.18-4.38-28.18a65.77,65.77,0,0,1,1.42-14.14,47.26,47.26,0,0,1,4.17-11.73,39.18,39.18,0,0,1,6.68-9.32,35.3,35.3,0,0,1,9-6.68,44.45,44.45,0,0,1-13.26-15q-5.37-9.54-5.59-24.23,0-14.48,4.71-25.1a34,34,0,0,1,14.58-16.23q9.87-5.6,24.56-5.59,14.91,0,24.55,5.7a35,35,0,0,1,14.37,16.23q4.71,10.51,4.49,25-.23,14.91-5.37,24.34a42.73,42.73,0,0,1-13,14.91,35.13,35.13,0,0,1,9,6.68,39.5,39.5,0,0,1,6.69,9.32,47.66,47.66,0,0,1,4.17,11.73,66.41,66.41,0,0,1,1.42,14.14q.21,16-4.28,28.18a37.85,37.85,0,0,1-14.68,19Q898.09,830.49,881,830.49Zm0-23q7.23,0,10.85-4.39A22.81,22.81,0,0,0,896.55,792a83.51,83.51,0,0,0,1.1-13.7,66.33,66.33,0,0,0-1.1-14.36,24.64,24.64,0,0,0-4.93-11.3Q888,748.27,881,748.27q-6.79,0-10.42,4.38a25.57,25.57,0,0,0-5,11.18,70.56,70.56,0,0,0-1.42,14.48,79.23,79.23,0,0,0,1.2,13.81,22.35,22.35,0,0,0,4.94,11.07Q874,807.46,881,807.47Zm0-84.85a11.62,11.62,0,0,0,8.66-3.84,21.34,21.34,0,0,0,4.49-10,71.51,71.51,0,0,0,1.32-14.47q0-10.08-3.29-16.44T881,671.53q-7.68,0-11.29,6.36t-3.62,16.22a68,68,0,0,0,1.42,14.58,21.63,21.63,0,0,0,4.72,10.09A12,12,0,0,0,881,722.62Z" transform="translate(-52.02 -648.29)"/><path class="cls-1" d="M948.3,828.08l35.3-154.36h-48V650.48h77.84v18.64l-35.74,159Z" transform="translate(-52.02 -648.29)"/><path class="cls-1" d="M1077,830.71q-15.57,0-25.76-6.58a40.73,40.73,0,0,1-15.35-18.2q-5.16-11.61-5.15-26.75V700.47q0-15.56,4.93-27.29a39.31,39.31,0,0,1,15.13-18.31q10.18-6.58,26.2-6.58t26.2,6.58a39.37,39.37,0,0,1,15.13,18.31q4.92,11.73,4.93,27.29v78.71q0,15.14-5.15,26.75a40.79,40.79,0,0,1-15.35,18.2Q1092.56,830.7,1077,830.71Zm0-26.09q6.8,0,10.08-4.17a22.67,22.67,0,0,0,4.39-10.09,63.66,63.66,0,0,0,1.09-11.62V700.91a75,75,0,0,0-1-12.17,21.86,21.86,0,0,0-4.28-10.19q-3.29-4.17-10.3-4.17t-10.31,4.17a21.85,21.85,0,0,0-4.27,10.19,75,75,0,0,0-1,12.17v77.83a57.57,57.57,0,0,0,1.21,11.62,23.59,23.59,0,0,0,4.49,10.09Q1070.42,804.62,1077,804.62Z" transform="translate(-52.02 -648.29)"/><path class="cls-1" d="M1187.06,830.71q-17.76,0-27.52-6.58a33.69,33.69,0,0,1-13.48-18.64q-3.74-12-3.73-28.28h29.6a92.71,92.71,0,0,0,1.21,15.9q1.2,6.9,4.82,10.74t10.63,3.62q7.68,0,10.86-4.94c2.11-3.29,3.47-7.89,4-13.81s.88-12.83.88-20.72a116.54,116.54,0,0,0-1.21-18q-1.2-7.66-4.71-11.95t-11-4.27a14.09,14.09,0,0,0-10.53,4.27,26,26,0,0,0-6.14,11.29h-26.08l1.75-98.88h79.81v27.19h-54.38l-1.75,42.75a22.78,22.78,0,0,1,9.53-6.35,45.64,45.64,0,0,1,13.93-2.85q14-.66,22.8,5.92t12.94,19.07q4.15,12.49,4.16,29.82a167.15,167.15,0,0,1-1.86,25.87,58.66,58.66,0,0,1-6.91,20.5,34.93,34.93,0,0,1-14.14,13.48Q1201.52,830.71,1187.06,830.71Z" transform="translate(-52.02 -648.29)"/></svg>