<svg id="Layer_3" data-name="Layer 3" xmlns="http://www.w3.org/2000/svg" viewBox="0 0 400.72 59.1"><defs><style>.cls-1{fill:#2e3192;}.cls-2{fill:#f7931e;}.cls-3{fill:#f15a24;}.cls-4{fill:#d4145a;}.cls-5{fill:#f2f2f2;}.cls-6{fill:#1a1a1a;}</style></defs><title>RLC Events Mark and Type</title><path class="cls-1" d="M116.72,235.62H85.29a.32.32,0,0,1-.21-.55,24.07,24.07,0,0,1,31.85,0A.31.31,0,0,1,116.72,235.62Z" transform="translate(-55.51 -218.1)"/><path class="cls-2" d="M87.11,272.1h27.8a.32.32,0,0,1,.19.57,24.13,24.13,0,0,1-28.18,0A.31.31,0,0,1,87.11,272.1Z" transform="translate(-55.51 -218.1)"/><path class="cls-3" d="M124.44,258.67a23.61,23.61,0,0,1-2.43,6.24,1.24,1.24,0,0,1-1.08.62H81.09a1.24,1.24,0,0,1-1.09-.62,24,24,0,0,1-2.43-6.24,1.25,1.25,0,0,1,1.22-1.53h44.43A1.24,1.24,0,0,1,124.44,258.67Z" transform="translate(-55.51 -218.1)"/><path class="cls-4" d="M123.8,250.57H78.22a1,1,0,0,1-1-1.19,24.13,24.13,0,0,1,2.06-6.63,1,1,0,0,1,.92-.57h41.64a1,1,0,0,1,.92.57,24.46,24.46,0,0,1,2,6.63A1,1,0,0,1,123.8,250.57Z" transform="translate(-55.51 -218.1)"/><path class="cls-5" d="M71.59,268.85c-4.63,0-8.4-.77-11.66-3.87a13,13,0,0,1-3.88-13.5c1.44-5.37,5.17-8.59,10.51-9.9a2.8,2.8,0,0,0,2.25-1.88c9-22.37,38.33-28.83,56-12.4a34.24,34.24,0,0,1,8.66,12.5,2.53,2.53,0,0,0,2.05,1.75c5.63,1.34,9.42,4.74,10.81,10.42a13.78,13.78,0,0,1-12.17,16.74c-2.23.18-4.12.17-6.72.15-1.2,0-1.23-.27-.71-1.27,5.78-11.15,5.2-22-2.17-32.18a29.15,29.15,0,0,0-30.89-10.77,29.47,29.47,0,0,0-18.2,42.94c.68,1.22.66,1.26-.79,1.27C73.66,268.86,73.48,268.88,71.59,268.85Z" transform="translate(-55.51 -218.1)"/><path class="cls-6" d="M83.5,247.18h0Z" transform="translate(-55.51 -218.1)"/><path class="cls-5" d="M369.31,235.19h9.48c2.39,5.81,4.75,11.58,7.26,17.67,1.42-6,2.76-11.75,4.12-17.56h9.44c-2.52,10.94-5,21.77-7.53,32.67h-9.54l-7-17.05h-.34c-1.34,5.65-2.67,11.3-4,17h-9.35c1-5.49,2.47-10.88,3.7-16.31S368,240.81,369.31,235.19Z" transform="translate(-55.51 -218.1)"/><path class="cls-5" d="M189.06,236.22a12.59,12.59,0,0,0-4.11-.92c-5.72-.23-11.43-.06-17.14-.09a3.23,3.23,0,0,0-.67.15l-1.86,8.06h9.48c2.54,0,4.3-.06,7.55.05,2.46.08,3.51,2.94,2.12,5.06a4.29,4.29,0,0,1-3,1.95,19,19,0,0,1-2.37.21c-.44,0-.9,0-1.35,0h-14.1q-2,8.61-4,17.3H169c.89-3.88,1.8-7.71,2.76-11.87L180.58,268h10.7c-3-3.77-5.76-7.31-8.75-11.12.79-.08,1.27-.11,1.74-.18,4.88-.79,9.76-3.51,10.52-9.88C195.37,242,193.69,238,189.06,236.22Z" transform="translate(-55.51 -218.1)"/><path class="cls-5" d="M256.17,247.22h-9.84s-.19-.09-.23-.19a7.14,7.14,0,0,0-7.64-4.19c-3.83.51-6.39,2.73-7.19,6.36a12.25,12.25,0,0,0,.21,6.55,6.25,6.25,0,0,0,5.26,4.57,7,7,0,0,0,6.86-2.64c.22-.29.4-.6.6-.89h10.66a10.82,10.82,0,0,1-2.4,5.31,15.37,15.37,0,0,1-7.42,5.22,20.7,20.7,0,0,1-12,.59c-6.63-1.66-10.7-5.79-11.72-12.6-1.21-8.15,2.55-15.95,10.26-19a20.44,20.44,0,0,1,17.45.62,13,13,0,0,1,6.85,8.26,7.91,7.91,0,0,1,.25,1.07A8.09,8.09,0,0,1,256.17,247.22Z" transform="translate(-55.51 -218.1)"/><path class="cls-5" d="M345.72,255.41a17.06,17.06,0,0,0-1,4.65h14.23c-.61,2.69-1.19,5.23-1.78,7.88H333.24q2.29-9.94,4.61-19.84h22.48c-.58,2.56-1.12,4.87-1.67,7.31Z" transform="translate(-55.51 -218.1)"/><path class="cls-5" d="M364.67,235.29c-.6,2.59-1.19,5.09-1.77,7.63H339.05c.6-2.54,1.19-5.09,1.78-7.63Z" transform="translate(-55.51 -218.1)"/><path class="cls-5" d="M279.55,255.49c-.79,1.41-.62,3-1.38,4.49h14.55l-1.83,8H267q2.33-10,4.61-19.86h22.44c-.51,2.57-1,5-1.75,7.39Z" transform="translate(-55.51 -218.1)"/><path class="cls-5" d="M298.32,235.27c-.36,2.61-1.05,5.08-1.63,7.65H272.83c.59-2.55,1.2-5.09,1.78-7.65Z" transform="translate(-55.51 -218.1)"/><path class="cls-5" d="M456.23,245.85h-9.15a.69.69,0,0,1-.36-.64c.08-2.69-4.14-4-6.38-2.6a1.84,1.84,0,0,0-.26,3A5.43,5.43,0,0,0,442,246.7c2,.85,4,1.62,5.92,2.49,3.91,1.75,6,4.69,5.92,9.08s-2.2,7.45-6.18,8.94c-6.28,2.33-12.33,1.8-17.66-2.58a9,9,0,0,1-3.3-7.35h9.11c1,3.07,3.1,4.33,6.15,3.7,1.1-.23,2-.73,2.11-2a2.27,2.27,0,0,0-1.54-2.45c-2.42-1-4.85-2.05-7.21-3.21a9.29,9.29,0,0,1-5.26-6.05,9.12,9.12,0,0,1,4.88-10.82,16.89,16.89,0,0,1,16.24.42A9.49,9.49,0,0,1,456.23,245.85Z" transform="translate(-55.51 -218.1)"/><path class="cls-5" d="M315.7,268h-9c-2.26-10.85-4.53-21.69-6.83-32.68h10.08q1.67,10.3,3.32,20.59l.33.09,13-20.72h11.08Z" transform="translate(-55.51 -218.1)"/><path class="cls-5" d="M409.86,243H401.1c.62-2.68,1.19-5.17,1.78-7.73h26.57a74.5,74.5,0,0,1-1.7,7.69h-8.39c-1.95,8.34-3.9,16.64-5.85,25h-9.44C406,259.63,407.91,251.43,409.86,243Z" transform="translate(-55.51 -218.1)"/><path class="cls-5" d="M219.35,259.71c-.72,3-1.21,5.68-2,8.31H194.42c2.43-11,5-21.83,7.55-32.74h9.45c-1.88,8.17-3.74,16.19-5.64,24.43Z" transform="translate(-55.51 -218.1)"/></svg>