<svg id="Layer_2" data-name="Layer 2" xmlns="http://www.w3.org/2000/svg" viewBox="0 0 500 500"><defs><style>.cls-1{fill:#1a1a1a;}.cls-2{fill:#2e3192;}.cls-3{fill:#f7931e;}.cls-4{fill:#f15a24;}.cls-5{fill:#d4145a;}.cls-6{fill:#f2f2f2;}</style></defs><title>RLC Events Logo</title><rect class="cls-1" width="500" height="500"/><path class="cls-2" d="M317.6,199.3H183.88A1.34,1.34,0,0,1,183,197a102.47,102.47,0,0,1,135.54,0A1.34,1.34,0,0,1,317.6,199.3Z"/><path class="cls-3" d="M191.59,354.56h118.3a1.33,1.33,0,0,1,.8,2.4,102.63,102.63,0,0,1-119.9,0A1.33,1.33,0,0,1,191.59,354.56Z"/><path class="cls-4" d="M350.47,297.43A101.22,101.22,0,0,1,340.13,324a5.29,5.29,0,0,1-4.62,2.66H166a5.27,5.27,0,0,1-4.61-2.66A101.25,101.25,0,0,1,151,297.43a5.33,5.33,0,0,1,5.2-6.53H345.28A5.33,5.33,0,0,1,350.47,297.43Z"/><path class="cls-5" d="M347.72,263h-194a4.35,4.35,0,0,1-4.26-5.08,101.47,101.47,0,0,1,8.76-28.21,4.29,4.29,0,0,1,3.89-2.42H339.36a4.31,4.31,0,0,1,3.9,2.43,102.36,102.36,0,0,1,8.73,28.2A4.36,4.36,0,0,1,347.72,263Z"/><path class="cls-6" d="M125.58,340.72c-19.7.16-35.78-3.25-49.64-16.44C59.31,308.44,53.48,288.9,59.42,266.8c6.15-22.85,22-36.54,44.73-42.1,5-1.22,7.64-3.21,9.58-8C152.15,121.51,276.84,94,352.07,163.93c16.19,15,28.7,32.64,36.85,53.18,1.75,4.39,4.1,6.36,8.75,7.46,23.95,5.68,40,20.17,46,44.34,8.3,33.81-17,68.4-51.79,71.22-9.49.76-17.52.75-28.61.64-5.07,0-5.22-1.14-3-5.41,24.62-47.46,22.13-93.51-9.24-136.92-29.41-40.71-82.49-58.65-131.44-45.83s-85.54,54-92.28,103.7a124.4,124.4,0,0,0,14.85,79c2.88,5.19,2.79,5.35-3.38,5.4C134.36,340.75,133.6,340.88,125.58,340.72Z"/></svg>